{"accessors" : [{"bufferView" : 0, "byteOffset" : 0, "componentType" : 5123, "count" : 44880, "type" : "SCALAR", "max" : [8053], "min" : [0]}, {"bufferView" : 1, "byteOffset" : 0, "componentType" : 5126, "count" : 8054, "type" : "VEC3", "max" : [71.8410263061523, 13.7336463928223, 0.348500996828079], "min" : [-71.8410263061523, -18.5150852203369, -182.366622924805]}, {"bufferView" : 1, "byteOffset" : 12, "componentType" : 5126, "count" : 8054, "type" : "VEC3", "max" : [0.999952375888824, 0.999963164329529, 0.999999344348907], "min" : [-0.99995231628418, -1.00000250339508, -0.999989569187164]}, {"bufferView" : 1, "byteOffset" : 24, "componentType" : 5126, "count" : 8054, "type" : "VEC2", "max" : [0.867169976234436, 0.998049974441528], "min" : [0.00194999994710088, 0.00195997953414917]}], "asset" : {"generator" : "Aspose.3D 20.1", "version" : "2.0"}, "buffers" : [{"uri" : "buffer.bin", "byteLength" : 347496}], "bufferViews" : [{"buffer" : 0, "byteOffset" : 0, "byteLength" : 89760, "target" : 34963}, {"buffer" : 0, "byteOffset" : 89764, "byteLength" : 257728, "byteStride" : 32, "target" : 34962}], "materials" : [{"pbrMetallicRoughness" : {"baseColorFactor" : [0.800000011920929, 0.800000011920929, 0.800000011920929, 1], "metallicFactor" : 0, "roughnessFactor" : 0.5}, "emissiveFactor" : [0, 0, 0], "alphaMode" : "OPAQUE", "doubleSided" : true}], "meshes" : [{"primitives" : [{"attributes" : {"POSITION" : 1, "NORMAL" : 2, "TEXCOORD_0" : 3}, "indices" : 0, "material" : 0, "mode" : 4}]}], "nodes" : [{"matrix" : [99.9999771118164, 0, 0, 0, 0, 100, 0, 0, 0, 0, 100, 0, -9.27448272705078E-05, -1.85966491699219E-05, 0, 1], "mesh" : 0, "name" : "person"}, {"children" : [0], "matrix" : [0.00999999977648258, 0, 0, 0, 0, -1.34358853481896E-09, 0.0099999994341971, 0, 0, -0.0099999994341971, -1.34358853481896E-09, 0, 0, 0, 0, 1], "name" : "Dude"}], "scene" : 0, "scenes" : [{"nodes" : [1]}]}